# xmcd CD database file
#
# Track frame offsets:
#	150
#	25525
#	48700
#	74050
#
# Disc length: 1293 seconds
#
# Revision: 2
# Processed by: cddbd v1.5PL3 Copyright (c) Steve Scherf et al.
# Submitted via: CDex 1.40Release
#
DISCID=34050b04
DTITLE=ＴＨＥ　虎舞竜 - ロ−ド〜第３章〜
DYEAR=1900
DGENRE=J-rock
TTITLE0=ロ−ド〜第３章〜
TTITLE1=無冠の王者！！無冠のチャンピオン！！
TTITLE2=ロ−ド〜第３章〜（ｉｎｓｔ．）
TTITLE3=無冠の王者！！無冠のチャンピオン！！(inst.l)
EXTD=
EXTT0=
EXTT1=
EXTT2=
EXTT3=
PLAYORDER=
